<svg width="40" height="40" viewBox="0 0 40 40" fill="none" xmlns="http://www.w3.org/2000/svg">
<g id="vuesax/bold/document">
<g id="document">
<path id="Subtract" fill-rule="evenodd" clip-rule="evenodd" d="M29.35 16.9833H34.1667C35.0833 16.9833 35.8333 17.7333 35.8333 18.65V27.3833C35.8333 33.3333 31.6833 36.6667 26.55 36.6667H13.45C8.31666 36.6667 4.16666 33.3333 4.16666 27.3833V12.6167C4.16666 6.66666 8.31666 3.33333 13.45 3.33333H20.5167C21.4333 3.33333 22.1833 4.08333 22.1833 4.99999V9.81666C22.1833 13.7667 25.4 16.9833 29.35 16.9833ZM22.7063 20.3053L24.996 25.4439C24.9967 25.4441 24.9975 25.4441 24.9983 25.4441C24.9989 25.4441 24.9994 25.444 25 25.4439C25 27.1127 23.5081 28.4663 21.6668 28.4663C19.8272 28.4663 18.3356 27.1146 18.3336 25.4472L18.3321 25.4467L18.3333 25.4442L18.3336 25.4439L20.5149 20.555H18.2024C18.075 20.8427 17.8631 21.0886 17.5925 21.2626V29.1775H20.926V29.8887C20.926 30.8666 20.0927 31.6667 19.0741 31.6667H14.2593C13.2406 31.6667 12.4073 30.8666 12.4073 29.8887V29.1775H15.7405V21.2629C15.4698 21.0889 15.2579 20.8429 15.1307 20.555H12.8178L14.996 25.4439H15.0001C15.0001 27.1127 13.5082 28.4663 11.6668 28.4663C9.82606 28.4663 8.33333 27.1127 8.33333 25.4439H8.33734L10.627 20.3058C10.5817 20.1892 10.5557 20.0641 10.5557 19.9329C10.5559 19.7073 10.6305 19.4877 10.7689 19.3054C10.9073 19.1232 11.1023 18.9878 11.3259 18.9186C11.5495 18.8495 11.7902 18.8501 12.0134 18.9206C12.2366 18.991 12.4308 19.1275 12.568 19.3105H15.1307C15.2584 19.0208 15.4722 18.7737 15.7453 18.5999C16.0184 18.4261 16.3388 18.3334 16.6665 18.3333C16.9941 18.3333 17.3146 18.4259 17.5878 18.5996C17.861 18.7732 18.0748 19.0203 18.2026 19.31H20.7653C20.8678 19.1724 21.003 19.0604 21.1597 18.9831C21.3164 18.9058 21.49 18.8655 21.6662 18.8656C21.9609 18.8656 22.2436 18.9779 22.452 19.178C22.6605 19.378 22.7776 19.6494 22.7777 19.9323C22.7777 20.0635 22.7516 20.1889 22.7063 20.3053ZM9.34453 25.4439H13.9889L11.9882 20.9532C11.7786 21.0142 11.5548 21.0142 11.3451 20.9535L9.34453 25.4439ZM21.3442 20.9535L19.3405 25.4439H23.9891L21.9882 20.9535C21.7783 21.0147 21.5541 21.0147 21.3442 20.9535Z" fill="#FDFDFD"/>
<path id="Vector" d="M26.3333 3.68333C25.65 2.99999 24.4667 3.46666 24.4667 4.41666V10.2333C24.4667 12.6667 26.5333 14.6833 29.05 14.6833C30.6333 14.7 32.8333 14.7 34.7167 14.7C35.6667 14.7 36.1667 13.5833 35.5 12.9167C33.1 10.5 28.8 6.14999 26.3333 3.68333Z" fill="#FDFDFD"/>
</g>
</g>
</svg>
