<svg width="16" height="16" viewBox="0 0 16 16" fill="none" xmlns="http://www.w3.org/2000/svg">
<g id="vuesax/linear/eye">
<g id="eye">
<path id="Vector" d="M10.3867 8C10.3867 9.32 9.32 10.3867 8 10.3867C6.68 10.3867 5.61333 9.32 5.61333 8C5.61333 6.68 6.68 5.61333 8 5.61333C9.32 5.61333 10.3867 6.68 10.3867 8Z" stroke="#9497A0" stroke-linecap="round" stroke-linejoin="round"/>
<path id="Vector_2" d="M8 13.5133C10.3533 13.5133 12.5467 12.1267 14.0733 9.72667C14.6733 8.78667 14.6733 7.20667 14.0733 6.26667C12.5467 3.86667 10.3533 2.48 8 2.48C5.64667 2.48 3.45334 3.86667 1.92667 6.26667C1.32667 7.20667 1.32667 8.78667 1.92667 9.72667C3.45334 12.1267 5.64667 13.5133 8 13.5133Z" stroke="#9497A0" stroke-linecap="round" stroke-linejoin="round"/>
</g>
</g>
</svg>
