<svg width="25" height="24" viewBox="0 0 25 24" fill="none" xmlns="http://www.w3.org/2000/svg">
<g id="Icons">
<path id="Vector" d="M5.10366 14.1728L5.51777 15.7183C6.00117 17.5223 6.24287 18.4244 6.79081 19.0094C7.22346 19.4713 7.78336 19.7946 8.39973 19.9383C9.18035 20.1203 10.0824 19.8786 11.8864 19.3952L11.8864 19.3952C13.6905 18.9118 14.5925 18.6701 15.1776 18.1222C15.2261 18.0767 15.2732 18.0298 15.3186 17.9816C15.0512 17.9592 14.7816 17.9162 14.5075 17.8617C13.9507 17.7509 13.2889 17.5736 12.5064 17.3639L12.4209 17.341L12.4012 17.3357C11.5497 17.1076 10.8383 16.9166 10.2702 16.7114C9.67286 16.4956 9.13008 16.2296 8.66918 15.7979C8.03403 15.203 7.58954 14.4331 7.39193 13.5856C7.24853 12.9706 7.28953 12.3675 7.40133 11.7423C7.50847 11.1432 7.70087 10.4252 7.9314 9.5649L7.93141 9.56488L8.35892 7.96938L8.37396 7.91327C6.83752 8.32716 6.02881 8.57203 5.48949 9.07715C5.02756 9.5098 4.7043 10.0697 4.56058 10.6861C4.37857 11.4667 4.62027 12.3687 5.10366 14.1728Z" fill="#5CB86C"/>
<path id="Vector_2" fill-rule="evenodd" clip-rule="evenodd" d="M19.5634 10.9723L19.1493 12.5178C18.6659 14.3219 18.4242 15.2239 17.8763 15.8089C17.4436 16.2709 16.8837 16.5941 16.2673 16.7379C16.1903 16.7558 16.1121 16.7696 16.032 16.7795C15.2999 16.8698 14.4067 16.6305 12.7806 16.1948C10.9766 15.7114 10.0745 15.4697 9.48949 14.9217C9.02756 14.4891 8.7043 13.9292 8.56058 13.3128C8.37857 12.5322 8.62027 11.6302 9.10366 9.8261L9.51777 8.28062C9.58728 8.02123 9.65183 7.78032 9.71297 7.55649C10.077 6.22366 10.3217 5.49039 10.7908 4.98949C11.2235 4.52756 11.7834 4.2043 12.3997 4.06058C13.1804 3.87857 14.0824 4.12027 15.8864 4.60366C17.6905 5.08706 18.5925 5.32876 19.1776 5.8767C19.6395 6.30935 19.9628 6.86925 20.1065 7.48562C20.2885 8.26624 20.0468 9.16827 19.5634 10.9723ZM11.7419 10.2447C11.8277 9.92463 12.1567 9.73468 12.4768 9.82045L16.3405 10.8557C16.6606 10.9415 16.8505 11.2705 16.7647 11.5906C16.679 11.9106 16.35 12.1006 16.0299 12.0148L12.1662 10.9796C11.8461 10.8938 11.6562 10.5648 11.7419 10.2447ZM11.1204 12.5627C11.2062 12.2426 11.5352 12.0526 11.8553 12.1384L14.1735 12.7596C14.4936 12.8453 14.6835 13.1743 14.5978 13.4944C14.512 13.8145 14.183 14.0045 13.8629 13.9187L11.5447 13.2975C11.2246 13.2118 11.0347 12.8828 11.1204 12.5627Z" fill="#5CB86C"/>
</g>
</svg>
