<svg width="25" height="20" viewBox="0 0 25 20" fill="none" xmlns="http://www.w3.org/2000/svg">
<g id="Group">
<path id="Vector" d="M7.46 2.84801V6.01601H5.828V2.84801C5.828 2.51201 6.116 2.22401 6.452 2.22401H6.788C7.172 2.17601 7.46 2.46401 7.46 2.84801Z" fill="#9497A0"/>
<path id="Vector_2" d="M20.708 2.12801C20.612 1.26401 19.892 0.59201 18.98 0.59201H13.172C12.404 0.59201 11.684 1.12001 11.492 1.88801L10.34 6.44801H4.004C3.62 6.44801 3.284 6.59201 3.044 6.88001C1.844 8.27201 1.892 10.288 2.132 11.584C2.996 10.816 4.1 10.384 5.252 10.384C6.5 10.384 7.7 10.864 8.612 11.776C9.284 12.448 9.716 13.264 9.908 14.176H12.02C11.876 12.4 12.452 10.576 13.844 9.18401C15.044 7.98401 16.58 7.36001 18.26 7.36001C19.364 7.36001 20.42 7.64801 21.332 8.17601L20.708 2.12801ZM15.812 6.40001H11.732L12.788 2.22401C12.836 2.03201 12.98 1.88801 13.172 1.88801H15.764V6.40001H15.812ZM17.012 6.40001V1.88801H19.028C19.22 1.88801 19.412 2.03201 19.46 2.27201L19.892 6.40001H17.012Z" fill="#9497A0"/>
<path id="Vector_3" d="M8.228 12.16C6.548 10.48 3.86 10.48 2.228 12.16C0.548 13.84 0.548 16.528 2.228 18.16C3.86 19.792 6.596 19.792 8.228 18.16C9.908 16.48 9.908 13.792 8.228 12.16ZM6.644 16.576C5.876 17.392 4.58 17.392 3.764 16.576C2.948 15.76 2.948 14.512 3.764 13.696C4.58 12.88 5.876 12.88 6.644 13.696C7.46 14.512 7.46 15.808 6.644 16.576ZM22.34 9.56801C20.084 7.31201 16.436 7.31201 14.18 9.56801C11.924 11.824 11.924 15.472 14.18 17.728C16.436 19.984 20.084 19.984 22.34 17.728C24.596 15.472 24.596 11.776 22.34 9.56801ZM20.564 15.952C19.316 17.2 17.204 17.2 15.956 15.952C14.66 14.656 14.66 12.592 15.956 11.344C17.252 10.048 19.316 10.048 20.564 11.344C21.86 12.592 21.86 14.656 20.564 15.952Z" fill="#9497A0"/>
<path id="Vector_4" d="M5.204 15.664C5.49561 15.664 5.732 15.4276 5.732 15.136C5.732 14.8444 5.49561 14.608 5.204 14.608C4.91239 14.608 4.676 14.8444 4.676 15.136C4.676 15.4276 4.91239 15.664 5.204 15.664Z" fill="#9497A0"/>
<path id="Vector_5" d="M18.26 14.848C18.9227 14.848 19.46 14.3107 19.46 13.648C19.46 12.9853 18.9227 12.448 18.26 12.448C17.5973 12.448 17.06 12.9853 17.06 13.648C17.06 14.3107 17.5973 14.848 18.26 14.848Z" fill="#9497A0"/>
</g>
</svg>
