<svg width="25" height="24" viewBox="0 0 25 24" fill="none" xmlns="http://www.w3.org/2000/svg">
<g id="vuesax/bold/message-2">
<g id="message-2">
<path id="Vector" d="M17.5 2.42999H7.5C4.5 2.42999 2.5 4.42999 2.5 7.42999V13.43C2.5 16.43 4.5 18.43 7.5 18.43H11.5L15.95 21.39C16.61 21.83 17.5 21.36 17.5 20.56V18.43C20.5 18.43 22.5 16.43 22.5 13.43V7.42999C22.5 4.42999 20.5 2.42999 17.5 2.42999ZM16 11.25H9C8.59 11.25 8.25 10.91 8.25 10.5C8.25 10.09 8.59 9.74999 9 9.74999H16C16.41 9.74999 16.75 10.09 16.75 10.5C16.75 10.91 16.41 11.25 16 11.25Z" fill="#9497A0"/>
</g>
</g>
</svg>
