<svg width="21" height="22" viewBox="0 0 21 22" fill="none" xmlns="http://www.w3.org/2000/svg">
<g id="Group">
<path id="22 help" d="M10.5 0.5C8.4233 0.5 6.39323 1.11581 4.66652 2.26957C2.9398 3.42332 1.59399 5.0632 0.79927 6.98182C0.00454947 8.90045 -0.203386 11.0116 0.201759 13.0484C0.606904 15.0852 1.60693 16.9562 3.07538 18.4246C4.54383 19.8931 6.41476 20.8931 8.45156 21.2982C10.4884 21.7034 12.5996 21.4955 14.5182 20.7007C16.4368 19.906 18.0767 18.5602 19.2304 16.8335C20.3842 15.1068 21 13.0767 21 11C20.997 8.21614 19.8898 5.54715 17.9213 3.57867C15.9528 1.61018 13.2839 0.502978 10.5 0.5ZM10.5 17.75C10.3517 17.75 10.2067 17.706 10.0833 17.6236C9.95999 17.5412 9.86386 17.4241 9.8071 17.287C9.75033 17.15 9.73548 16.9992 9.76442 16.8537C9.79335 16.7082 9.86479 16.5746 9.96968 16.4697C10.0746 16.3648 10.2082 16.2934 10.3537 16.2644C10.4992 16.2355 10.65 16.2503 10.787 16.3071C10.9241 16.3639 11.0412 16.46 11.1236 16.5833C11.206 16.7067 11.25 16.8517 11.25 17C11.25 17.1989 11.171 17.3897 11.0303 17.5303C10.8897 17.671 10.6989 17.75 10.5 17.75ZM11.8283 11.951C11.6677 11.9974 11.5256 12.0928 11.4219 12.2239C11.3182 12.3551 11.2581 12.5153 11.25 12.6823V14C11.25 14.1989 11.171 14.3897 11.0303 14.5303C10.8897 14.671 10.6989 14.75 10.5 14.75C10.3011 14.75 10.1103 14.671 9.96968 14.5303C9.82902 14.3897 9.75 14.1989 9.75 14V12.6823C9.75556 12.205 9.91045 11.7415 10.1929 11.3567C10.4754 10.972 10.8713 10.6854 11.325 10.5373C11.7504 10.386 12.1261 10.1207 12.411 9.77049C12.696 9.42025 12.8792 8.99846 12.9407 8.55117C13.0023 8.10388 12.9398 7.64828 12.76 7.23409C12.5803 6.81991 12.2902 6.46306 11.9215 6.2025C11.5528 5.94194 11.1195 5.78768 10.6691 5.75656C10.2187 5.72545 9.76835 5.81867 9.36729 6.02605C8.96623 6.23343 8.62984 6.547 8.39485 6.93253C8.15986 7.31807 8.0353 7.76075 8.03476 8.21225C8.03476 8.41116 7.95574 8.60193 7.81509 8.74258C7.67443 8.88323 7.48367 8.96225 7.28476 8.96225C7.08584 8.96225 6.89508 8.88323 6.75442 8.74258C6.61377 8.60193 6.53476 8.41116 6.53476 8.21225C6.53515 7.24104 6.89183 6.30372 7.53719 5.57795C8.18256 4.85217 9.07176 4.38838 10.0363 4.27447C11.0008 4.16056 11.9736 4.40446 12.7702 4.95993C13.5669 5.5154 14.1321 6.34385 14.3588 7.28825C14.5812 8.24049 14.4465 9.24127 13.98 10.1007C13.5136 10.9602 12.7479 11.6186 11.8283 11.951Z" fill="#9497A0"/>
</g>
</svg>
