<svg width="16" height="16" viewBox="0 0 16 16" fill="none" xmlns="http://www.w3.org/2000/svg">
<g id="vuesax/linear/messages">
<g id="messages">
<g id="Group">
<path id="Vector" d="M11.9867 7.19334V9.86001C11.9867 10.0333 11.98 10.2 11.96 10.36C11.8067 12.16 10.7467 13.0533 8.79333 13.0533H8.52667C8.36 13.0533 8.19999 13.1333 8.09999 13.2667L7.30001 14.3333C6.94667 14.8067 6.37333 14.8067 6.02 14.3333L5.21999 13.2667C5.13332 13.1533 4.94 13.0533 4.79333 13.0533H4.52667C2.4 13.0533 1.33333 12.5267 1.33333 9.86001V7.19334C1.33333 5.24001 2.23334 4.18001 4.02667 4.02667C4.18667 4.00667 4.35334 4 4.52667 4H8.79333C10.92 4 11.9867 5.06667 11.9867 7.19334Z" stroke="#9497A0" stroke-miterlimit="10" stroke-linecap="round" stroke-linejoin="round"/>
</g>
<path id="Vector_2" d="M14.6533 4.52668V7.19334C14.6533 9.15334 13.7533 10.2067 11.96 10.36C11.98 10.2 11.9867 10.0333 11.9867 9.86001V7.19334C11.9867 5.06667 10.92 4 8.79333 4H4.52667C4.35334 4 4.18667 4.00667 4.02667 4.02667C4.18001 2.23334 5.24001 1.33334 7.19334 1.33334H11.46C13.5867 1.33334 14.6533 2.40001 14.6533 4.52668Z" stroke="#9497A0" stroke-miterlimit="10" stroke-linecap="round" stroke-linejoin="round"/>
<path id="Vector_3" d="M8.997 8.83333H9.003" stroke="#9497A0" stroke-width="2" stroke-linecap="round" stroke-linejoin="round"/>
<path id="Vector_4" d="M6.66367 8.83333H6.66967" stroke="#9497A0" stroke-width="2" stroke-linecap="round" stroke-linejoin="round"/>
<path id="Vector_5" d="M4.33033 8.83333H4.33633" stroke="#9497A0" stroke-width="2" stroke-linecap="round" stroke-linejoin="round"/>
</g>
</g>
</svg>
