<svg width="41" height="40" viewBox="0 0 41 40" fill="none" xmlns="http://www.w3.org/2000/svg">
<g id="vuesax/bold/book">
<path id="Vector" d="M34.6667 26.6667V30.8333C34.6667 34.05 32.05 36.6667 28.8333 36.6667H12.1667C8.95 36.6667 6.33333 34.05 6.33333 30.8333V29.75C6.33333 27.1333 8.46667 25 11.0833 25H33C33.9167 25 34.6667 25.75 34.6667 26.6667Z" fill="#FDFDFD"/>
<path id="Vector_2" d="M26.3333 3.33333H14.6667C8 3.33333 6.33333 4.99999 6.33333 11.6667V24.3C7.6 23.1833 9.26667 22.5 11.0833 22.5H33C33.9167 22.5 34.6667 21.75 34.6667 20.8333V11.6667C34.6667 4.99999 33 3.33333 26.3333 3.33333ZM22.1667 17.9167H13.8333C13.15 17.9167 12.5833 17.35 12.5833 16.6667C12.5833 15.9833 13.15 15.4167 13.8333 15.4167H22.1667C22.85 15.4167 23.4167 15.9833 23.4167 16.6667C23.4167 17.35 22.85 17.9167 22.1667 17.9167ZM27.1667 12.0833H13.8333C13.15 12.0833 12.5833 11.5167 12.5833 10.8333C12.5833 10.15 13.15 9.58333 13.8333 9.58333H27.1667C27.85 9.58333 28.4167 10.15 28.4167 10.8333C28.4167 11.5167 27.85 12.0833 27.1667 12.0833Z" fill="#FDFDFD"/>
</g>
</svg>
