<svg width="40" height="36" viewBox="0 0 40 36" fill="none" xmlns="http://www.w3.org/2000/svg">
<g id="Group">
<path id="Vector" d="M11.1 8.08V13.36H8.38V8.08C8.38 7.52 8.86 7.04 9.42 7.04H9.98C10.62 6.96 11.1 7.44 11.1 8.08Z" fill="#FDFDFD"/>
<path id="Vector_2" d="M33.18 6.88001C33.02 5.44001 31.82 4.32001 30.3 4.32001H20.62C19.34 4.32001 18.14 5.20001 17.82 6.48001L15.9 14.08H5.34C4.7 14.08 4.14 14.32 3.74 14.8C1.74 17.12 1.82 20.48 2.22 22.64C3.66 21.36 5.5 20.64 7.42 20.64C9.5 20.64 11.5 21.44 13.02 22.96C14.14 24.08 14.86 25.44 15.18 26.96H18.7C18.46 24 19.42 20.96 21.74 18.64C23.74 16.64 26.3 15.6 29.1 15.6C30.94 15.6 32.7 16.08 34.22 16.96L33.18 6.88001ZM25.02 14H18.22L19.98 7.04001C20.06 6.72001 20.3 6.48001 20.62 6.48001H24.94V14H25.02ZM27.02 14V6.48001H30.38C30.7 6.48001 31.02 6.72001 31.1 7.12001L31.82 14H27.02Z" fill="#FDFDFD"/>
<path id="Vector_3" d="M33.667 0.000335693C30.4529 0.000335693 27.8337 2.6195 27.8337 5.83367C27.8337 9.04784 30.4529 11.667 33.667 11.667C36.8812 11.667 39.5004 9.04784 39.5004 5.83367C39.5004 2.6195 36.8812 0.000335693 33.667 0.000335693ZM36.2045 7.91617C36.1229 8.05617 35.977 8.132 35.8254 8.132C35.7495 8.132 35.6737 8.1145 35.6037 8.06784L33.7954 6.98867C33.3462 6.72034 33.0137 6.13117 33.0137 5.612V3.22034C33.0137 2.98117 33.212 2.78284 33.4512 2.78284C33.6904 2.78284 33.8887 2.98117 33.8887 3.22034V5.612C33.8887 5.822 34.0637 6.13117 34.2445 6.23617L36.0529 7.31534C36.2629 7.43784 36.3329 7.70617 36.2045 7.91617Z" fill="#FDFDFD"/>
<path id="Vector_4" d="M12.38 23.6C9.58 20.8 5.1 20.8 2.38 23.6C-0.420001 26.4 -0.420001 30.88 2.38 33.6C5.1 36.32 9.66 36.32 12.38 33.6C15.18 30.8 15.18 26.32 12.38 23.6ZM9.74 30.96C8.46 32.32 6.3 32.32 4.94 30.96C3.58 29.6 3.58 27.52 4.94 26.16C6.3 24.8 8.46 24.8 9.74 26.16C11.1 27.52 11.1 29.68 9.74 30.96ZM35.9 19.28C32.14 15.52 26.06 15.52 22.3 19.28C18.54 23.04 18.54 29.12 22.3 32.88C26.06 36.64 32.14 36.64 35.9 32.88C39.66 29.12 39.66 22.96 35.9 19.28ZM32.94 29.92C30.86 32 27.34 32 25.26 29.92C23.1 27.76 23.1 24.32 25.26 22.24C27.42 20.08 30.86 20.08 32.94 22.24C35.1 24.32 35.1 27.76 32.94 29.92Z" fill="#FDFDFD"/>
<path id="Vector_5" d="M7.34 29.44C7.82601 29.44 8.22 29.046 8.22 28.56C8.22 28.074 7.82601 27.68 7.34 27.68C6.85399 27.68 6.46 28.074 6.46 28.56C6.46 29.046 6.85399 29.44 7.34 29.44Z" fill="#FDFDFD"/>
<path id="Vector_6" d="M29.1 28.08C30.2046 28.08 31.1 27.1846 31.1 26.08C31.1 24.9754 30.2046 24.08 29.1 24.08C27.9954 24.08 27.1 24.9754 27.1 26.08C27.1 27.1846 27.9954 28.08 29.1 28.08Z" fill="#FDFDFD"/>
</g>
</svg>
