<svg width="32" height="44" viewBox="0 0 32 44" fill="none" xmlns="http://www.w3.org/2000/svg">
<g id="Group">
<g id="Group_2">
<path id="Vector" d="M16.5366 3.48462C17.365 3.48462 18.0366 2.81305 18.0366 1.98462C18.0366 1.15619 17.365 0.484619 16.5366 0.484619C15.7081 0.484619 15.0366 1.15619 15.0366 1.98462C15.0366 2.81305 15.7081 3.48462 16.5366 3.48462Z" fill="#FFDC00"/>
<path id="Vector_2" d="M31.4634 39.5214C32.2919 39.5214 32.9634 38.8498 32.9634 38.0214C32.9634 37.1929 32.2919 36.5214 31.4634 36.5214C30.635 36.5214 29.9634 37.1929 29.9634 38.0214C29.9634 38.8498 30.635 39.5214 31.4634 39.5214Z" fill="#FFDC00"/>
</g>
<g id="Group_3">
<path id="Vector_3" d="M5.98163 14.0396C6.81006 14.0396 7.48163 13.368 7.48163 12.5396C7.48163 11.7111 6.81006 11.0396 5.98163 11.0396C5.1532 11.0396 4.48163 11.7111 4.48163 12.5396C4.48163 13.368 5.1532 14.0396 5.98163 14.0396Z" fill="#FFDC00"/>
</g>
<g id="Group_4">
<path id="Vector_4" d="M5.98163 28.9664C6.81006 28.9664 7.48163 28.2949 7.48163 27.4664C7.48163 26.638 6.81006 25.9664 5.98163 25.9664C5.1532 25.9664 4.48163 26.638 4.48163 27.4664C4.48163 28.2949 5.1532 28.9664 5.98163 28.9664Z" fill="#FFDC00"/>
</g>
<g id="Group_5">
<path id="Vector_5" d="M16.5366 39.5214C17.365 39.5214 18.0366 38.8498 18.0366 38.0214C18.0366 37.1929 17.365 36.5214 16.5366 36.5214C15.7081 36.5214 15.0366 37.1929 15.0366 38.0214C15.0366 38.8498 15.7081 39.5214 16.5366 39.5214Z" fill="#FFDC00"/>
<path id="Vector_6" d="M31.4634 3.48462C32.2919 3.48462 32.9634 2.81305 32.9634 1.98462C32.9634 1.15619 32.2919 0.484619 31.4634 0.484619C30.635 0.484619 29.9634 1.15619 29.9634 1.98462C29.9634 2.81305 30.635 3.48462 31.4634 3.48462Z" fill="#FFDC00"/>
</g>
<path id="Vector_7" d="M24 35.0002C32.2843 35.0002 39.0001 28.2844 39.0001 20.0001C39.0001 11.7158 32.2843 5 24 5C15.7157 5 8.99991 11.7158 8.99991 20.0001C8.99991 28.2844 15.7157 35.0002 24 35.0002Z" fill="#FFDC00"/>
<g id="Group_6">
<path id="Vector_8" d="M23.956 -4H24.044C24.8482 -4 25.5 -3.34806 25.5 -2.54397V0.543969C25.5 1.34816 24.8482 2 24.044 2H23.956C23.1518 2 22.5 1.34816 22.5 0.543969V-2.54397C22.5 -3.34806 23.1518 -4 23.956 -4ZM23.956 38H24.044C24.8482 38 25.5 38.6519 25.5 39.456V42.544C25.5 43.3482 24.8481 44 24.044 44H23.956C23.1518 44 22.5 43.3481 22.5 42.544V39.456C22.5 38.6518 23.1518 38 23.956 38Z" fill="#FFDC00"/>
</g>
<g id="Group_7">
<path id="Vector_9" d="M6.99834 3.0605L7.0605 2.99834C7.62909 2.42975 8.55103 2.42975 9.11963 2.99834L11.3032 5.18188C11.8718 5.75047 11.8718 6.67241 11.3032 7.241L11.241 7.30316C10.6724 7.87175 9.75047 7.87175 9.18188 7.30316L6.99834 5.11972C6.42975 4.55103 6.42975 3.62919 6.99834 3.0605ZM36.6968 32.759L36.759 32.6968C37.3276 32.1283 38.2495 32.1283 38.8181 32.6968L41.0017 34.8804C41.5702 35.449 41.5702 36.3709 41.0017 36.9395L40.9395 37.0017C40.3709 37.5702 39.449 37.5702 38.8804 37.0017L36.6968 34.8181C36.1283 34.2495 36.1283 33.3276 36.6968 32.759Z" fill="#FFDC00"/>
</g>
<g id="Group_8">
<path id="Vector_10" d="M0 20.044V19.956C0 19.1518 0.651938 18.5 1.45603 18.5H4.54397C5.34816 18.5 6 19.1518 6 19.956V20.044C6 20.8482 5.34816 21.5 4.54397 21.5H1.45603C0.651938 21.5 0 20.8482 0 20.044ZM42 20.044V19.956C42 19.1518 42.6519 18.5 43.456 18.5H46.544C47.3482 18.5 48 19.1519 48 19.956V20.044C48 20.8482 47.3481 21.5 46.544 21.5H43.456C42.6518 21.5 42 20.8482 42 20.044Z" fill="#FFDC00"/>
</g>
<g id="Group_9">
<path id="Vector_11" d="M7.0605 37.0017L6.99834 36.9395C6.42975 36.3709 6.42975 35.449 6.99834 34.8804L9.18188 32.6968C9.75047 32.1283 10.6724 32.1283 11.241 32.6968L11.3032 32.759C11.8718 33.3276 11.8718 34.2495 11.3032 34.8181L9.11963 37.0017C8.55103 37.5702 7.62919 37.5702 7.0605 37.0017ZM36.759 7.30316L36.6968 7.241C36.1283 6.67241 36.1283 5.75047 36.6968 5.18188L38.8804 2.99834C39.449 2.42975 40.3709 2.42975 40.9395 2.99834L41.0017 3.0605C41.5702 3.62909 41.5702 4.55103 41.0017 5.11963L38.8181 7.30316C38.2495 7.87175 37.3276 7.87175 36.759 7.30316Z" fill="#FFDC00"/>
</g>
</g>
</svg>
