<svg width="25" height="24" viewBox="0 0 25 24" fill="none" xmlns="http://www.w3.org/2000/svg">
<g id="Icons">
<g id="Vector">
<path d="M2.5 7C2.5 4.23858 4.73858 2 7.5 2H17.5C20.2614 2 22.5 4.23858 22.5 7V17C22.5 19.7614 20.2614 22 17.5 22H7.5C4.73858 22 2.5 19.7614 2.5 17V7Z" fill="#5CB86C"/>
<path d="M13.708 17.212C13.708 17.4881 13.4841 17.712 13.208 17.712H11.792C11.5159 17.712 11.292 17.4881 11.292 17.212V11.44H8.688C8.41186 11.44 8.188 11.2161 8.188 10.94V9.924C8.188 9.64786 8.41186 9.424 8.688 9.424H16.312C16.5881 9.424 16.812 9.64786 16.812 9.924V10.94C16.812 11.2161 16.5881 11.44 16.312 11.44H13.708V17.212ZM8.188 6.788C8.188 6.51186 8.41186 6.288 8.688 6.288H16.312C16.5881 6.288 16.812 6.51186 16.812 6.788V7.804C16.812 8.08014 16.5881 8.304 16.312 8.304H8.688C8.41186 8.304 8.188 8.08014 8.188 7.804V6.788Z" fill="#FDFDFD"/>
</g>
</g>
</svg>
